<?xml version="1.0" encoding="utf-8"?>
<!-- Svg Vector Icons : http://www.sfont.cn -->
<!DOCTYPE svg PUBLIC "-//W3C//DTD SVG 1.1//EN" "http://www.w3.org/Graphics/SVG/1.1/DTD/svg11.dtd">
<svg version="1.1" xmlns="http://www.w3.org/2000/svg" xmlns:xlink="http://www.w3.org/1999/xlink" x="0px" y="0px" viewBox="0 0 1000 1000" enable-background="new 0 0 1000 1000" xml:space="preserve">
<metadata> Svg Vector Icons : http://www.sfont.cn </metadata>
<g><path d="M500,179c-131.4,0-237.9,106.6-237.9,238.1C262.1,612.4,500,821,500,821s237.9-197.9,237.9-403.9C737.9,285.6,631.4,179,500,179z M500,561.5c-81.2,0-147-65.9-147-147.1c0-81.3,65.8-147.1,147-147.1c81.2,0,147,65.9,147,147.1C647,495.7,581.2,561.5,500,561.5z"/><path d="M851.6,990H148.4C72.1,990,10,927.9,10,851.6V148.4C10,72.1,72.1,10,148.4,10h703.3C927.9,10,990,72.1,990,148.4v703.3C990,927.9,927.9,990,851.6,990z M148.4,56.1c-50.9,0-92.2,41.4-92.2,92.2v703.3c0,50.9,41.4,92.2,92.2,92.2h703.3c50.9,0,92.2-41.4,92.2-92.2V148.4c0-50.9-41.4-92.2-92.2-92.2H148.4z"/></g>
</svg>