<?xml version="1.0" encoding="utf-8"?>
<!-- Svg Vector Icons : http://www.sfont.cn -->
<!DOCTYPE svg PUBLIC "-//W3C//DTD SVG 1.1//EN" "http://www.w3.org/Graphics/SVG/1.1/DTD/svg11.dtd">
<svg version="1.1" xmlns="http://www.w3.org/2000/svg" xmlns:xlink="http://www.w3.org/1999/xlink" x="0px" y="0px" viewBox="0 0 1000 1000" enable-background="new 0 0 1000 1000" xml:space="preserve">
<metadata> Svg Vector Icons : http://www.sfont.cn </metadata>
<g><g transform="translate(0.000000,511.000000) scale(0.100000,-0.100000)"><path d="M4528.6,5004.2c-212.6-25.7-544.4-91.1-721.9-142.5c-243-70.1-539.7-191.6-539.7-219.6c0-25.7,1586.4-3434.4,1612.1-3462.4c9.3-11.7,35,100.5,56.1,245.3c23.4,144.9,154.2,999.9,292.1,1899.4c245.3,1612.1,250,1635.4,200.9,1654.1C5376.7,4999.5,4661.8,5020.5,4528.6,5004.2z"/><path d="M5942.1,3892.1c-28-133.1-570.1-3742.8-563-3752.1c9.3-7,3467.1,1595.7,3490.4,1619.1c16.4,14-126.1,282.7-261.7,490.6c-525.7,806-1350.4,1392.5-2301.3,1633.1C6005.1,3957.5,5958.4,3959.8,5942.1,3892.1z"/><path d="M3096.4,2473.9c-329.4-184.6-570.1-369.2-845.8-644.8c-315.4-315.4-525.7-607.4-724.3-1004.6c-165.9-331.8-264-612.1-343.4-976.6c-44.4-205.6-51.4-310.7-53.7-752.3c0-579.4,35-808.4,191.6-1259.3c640.2-1848,2527.9-2934.4,4432-2548.9c1584,320.1,2773.2,1544.3,3065.2,3154c56.1,317.8,58.4,985.9,2.3,1289.6c-65.4,352.8-271,988.3-317.8,988.3c-9.3,0-794.3-362.1-1742.9-806c-950.9-443.9-1740.6-806-1754.6-806c-14,0-387.8,780.3-831.7,1735.9c-446.2,953.2-822.4,1735.9-841.1,1740.6C3316,2586.1,3208.6,2537,3096.4,2473.9z"/></g></g>
</svg>